<?xml version="1.0" standalone="no"?><!DOCTYPE svg PUBLIC "-//W3C//DTD SVG 1.1//EN" "http://www.w3.org/Graphics/SVG/1.1/DTD/svg11.dtd"><svg class="icon" width="200px" height="200.00px" viewBox="0 0 1024 1024" version="1.1" xmlns="http://www.w3.org/2000/svg"><path d="M899.544615 786.116923c-47.261538-17.329231-149.661538-56.713846-189.046153-88.221538l-18.904616-18.904616 3.150769-3.150769v-15.753846l-36.233846-3.150769c-48.836923 40.96-102.4 66.166154-144.935384 66.166153-48.836923 0-113.427692-33.083077-166.99077-86.646153l-14.178461 23.630769v15.753846l3.150769 3.150769-18.904615 18.904616c-39.384615 31.507692-141.784615 70.892308-189.046154 88.221538-63.015385 23.630769-94.523077 47.261538-94.523077 110.276923v110.276923h204.8v-110.276923l78.769231-63.015384h393.846154l78.76923 63.015384v110.276923h204.8v-110.276923c0-63.015385-31.507692-86.646154-94.523077-110.276923z" fill="#94C1FF" /><path d="M159.113846 786.116923c47.261538-17.329231 149.661538-56.713846 189.046154-88.221538l18.904615-18.904616-3.150769-3.150769v-15.753846l3.150769-4.726154c-6.301538-6.301538-14.178462-12.603077-20.48-18.904615l-14.178461 23.630769v15.753846l3.150769 3.150769-18.904615 18.904616c-39.384615 31.507692-141.784615 70.892308-189.046154 88.221538-63.015385 23.630769-94.523077 47.261538-94.523077 110.276923v110.276923h31.507692v-110.276923c0-63.015385 31.507692-86.646154 94.523077-110.276923z" fill="#D7E9FF" /><path d="M868.036923 786.116923c-47.261538-17.329231-149.661538-56.713846-189.046154-88.221538l-18.904615-18.904616 3.150769-3.150769v-15.753846l-3.150769-4.726154c6.301538-6.301538 14.178462-12.603077 20.48-18.904615l14.178461 23.630769v15.753846l-3.150769 3.150769 18.904616 18.904616c39.384615 31.507692 141.784615 70.892308 189.046153 88.221538 63.015385 23.630769 94.523077 47.261538 94.523077 110.276923v110.276923h-31.507692v-110.276923c0-63.015385-31.507692-86.646154-94.523077-110.276923z" fill="#5C9EFF" /><path d="M442.683077 786.116923l-110.276923-110.276923v-15.753846l14.178461-23.630769 166.99077 86.646153V756.184615zM584.467692 786.116923l110.276923-110.276923v-15.753846l-15.753846-23.630769-165.415384 86.646153V756.184615z" fill="#FFFFFF" /><path d="M529.329231 115.003077c-7.876923-3.150769-15.753846-4.726154-23.630769-4.726154-34.658462 0-63.015385 28.356923-63.015385 63.015385 0 15.753846 6.301538 31.507692 15.753846 42.535384 6.301538 6.301538 12.603077 11.027692 20.48 15.753846 7.876923 3.150769 17.329231 6.301538 25.206154 6.301539 15.753846 0 31.507692-6.301538 42.535385-15.753846 12.603077-11.027692 20.48-28.356923 20.48-47.261539 1.575385-28.356923-15.753846-50.412308-37.809231-59.864615z" fill="#D7E9FF" /><path d="M494.670769 230.006154c-7.876923-3.150769-15.753846-9.452308-20.48-15.753846-9.452308-11.027692-15.753846-25.206154-15.753846-42.535385 0-31.507692 23.630769-58.289231 55.138462-61.44-3.150769 0-4.726154-1.575385-7.876923-1.575385-34.658462 0-63.015385 28.356923-63.015385 63.015385 0 15.753846 6.301538 31.507692 15.753846 42.535385 6.301538 6.301538 12.603077 11.027692 20.48 15.753846 7.876923 3.150769 17.329231 6.301538 25.206154 6.301538h7.876923c-4.726154-1.575385-11.027692-3.150769-17.329231-6.301538z" fill="#FFFFFF" /><path d="M515.150769 230.006154c7.876923-3.150769 15.753846-9.452308 20.48-15.753846 9.452308-11.027692 15.753846-25.206154 15.753846-42.535385 0-31.507692-23.630769-58.289231-55.138461-61.44 3.150769 0 4.726154-1.575385 7.876923-1.575385 34.658462 0 63.015385 28.356923 63.015385 63.015385 0 15.753846-6.301538 31.507692-15.753847 42.535385-6.301538 6.301538-12.603077 11.027692-20.48 15.753846-7.876923 3.150769-17.329231 6.301538-25.206153 6.301538h-7.876924c6.301538-1.575385 12.603077-3.150769 17.329231-6.301538z" fill="#94C1FF" /><path d="M529.329231 115.003077c-7.876923-3.150769-15.753846-4.726154-23.630769-4.726154-34.658462 0-63.015385 28.356923-63.015385 63.015385 0 15.753846 6.301538 31.507692 15.753846 42.535384 6.301538 6.301538 12.603077 11.027692 20.48 15.753846 7.876923 3.150769 17.329231 6.301538 25.206154 6.301539 15.753846 0 31.507692-6.301538 42.535385-15.753846 12.603077-11.027692 20.48-28.356923 20.48-47.261539 1.575385-28.356923-15.753846-50.412308-37.809231-59.864615z m-15.753846 166.990769c-110.276923 0-222.129231 18.904615-275.692308 39.384616v-31.507693C237.883077 137.058462 360.763077 14.178462 513.575385 14.178462s275.692308 122.88 275.692307 275.692307v31.507693c-53.563077-18.904615-165.415385-39.384615-275.692307-39.384616z" fill="#94C1FF" /><path d="M269.390769 289.870769c0-146.510769 115.003077-266.24 259.938462-274.116923-4.726154 0-11.027692-1.575385-15.753846-1.575384-152.812308 0-275.692308 122.88-275.692308 275.692307v31.507693c9.452308-3.150769 18.904615-6.301538 31.507692-9.452308v-22.055385z" fill="#D7E9FF" /><path d="M757.76 289.870769c0-146.510769-115.003077-266.24-259.938462-274.116923 4.726154 0 11.027692-1.575385 15.753847-1.575384 152.812308 0 275.692308 122.88 275.692307 275.692307v31.507693c-9.452308-3.150769-18.904615-6.301538-31.507692-9.452308v-22.055385z" fill="#5C9EFF" /><path d="M789.267692 345.009231h-582.892307c0-7.876923 11.027692-15.753846 31.507692-23.630769 53.563077-20.48 165.415385-39.384615 275.692308-39.384616s222.129231 18.904615 275.692307 39.384616c20.48 7.876923 31.507692 15.753846 31.507693 23.630769h-31.507693z" fill="#FFFFFF" /><path d="M237.883077 360.763077v-15.753846h551.384615v47.261538c0 107.126154-59.864615 203.224615-130.756923 264.664616-48.836923 40.96-102.4 66.166154-144.935384 66.166153-48.836923 0-113.427692-33.083077-166.99077-86.646153-61.44-61.44-108.701538-148.086154-108.701538-244.184616v-31.507692z" fill="#D7E9FF" /><path d="M378.092308 636.455385c-61.44-61.44-108.701538-148.086154-108.701539-244.184616v-47.261538h-31.507692v47.261538c0 96.098462 48.836923 182.744615 108.701538 244.184616 53.563077 53.563077 118.153846 86.646154 166.99077 86.646153 4.726154 0 11.027692 0 17.32923-1.575384-47.261538-4.726154-103.975385-36.233846-152.812307-85.070769z" fill="#FFFFFF" /><path d="M649.058462 636.455385c61.44-61.44 108.701538-148.086154 108.701538-244.184616v-47.261538h31.507692v47.261538c0 96.098462-48.836923 182.744615-108.701538 244.184616-53.563077 53.563077-118.153846 86.646154-166.990769 86.646153-4.726154 0-11.027692 0-17.329231-1.575384 47.261538-4.726154 103.975385-36.233846 152.812308-85.070769z" fill="#94C1FF" /><path d="M237.883077 896.393846l78.769231-63.015384h173.292307l-15.753846 63.015384v47.261539h78.769231v-47.261539l-15.753846-63.015384h173.292308l78.76923 63.015384v110.276923h-551.384615v-15.753846z" fill="#FFFFFF" /><path d="M237.883077 896.393846h236.307692l15.753846-63.015384h-173.292307zM584.467692 833.378462h-47.261538l15.753846 63.015384h236.307692l-78.76923-63.015384z" fill="#D7E9FF" /><path d="M316.652308 833.378462l-78.769231 63.015384h15.753846l78.769231-63.015384z" fill="#FFFFFF" opacity=".4" /><path d="M707.347692 833.378462l78.769231 63.015384h-15.753846l-78.769231-63.015384z" opacity=".2" /><path d="M237.883077 896.393846h15.753846v110.276923h-15.753846z" fill="#FFFFFF" opacity=".4" /><path d="M773.513846 896.393846h15.753846v110.276923h-15.753846z" opacity=".2" /><path d="M552.96 896.393846v47.261539h-78.769231v-47.261539l15.753846-63.015384h47.261539z" fill="#94C1FF" /><path d="M474.190769 896.393846h78.769231v47.261539h-78.769231z" fill="#D7E9FF" /><path d="M994.067692 1014.547692h-960.984615c-4.726154 0-7.876923-3.150769-7.876923-7.876923v-110.276923c0-67.741538 34.658462-92.947692 99.249231-118.153846 119.729231-45.686154 168.566154-72.467692 187.470769-88.221538 3.150769-3.150769 7.876923-1.575385 11.027692 1.575384 3.150769 3.150769 1.575385 7.876923-1.575384 11.027692-28.356923 23.630769-92.947692 53.563077-190.621539 89.796924-59.864615 22.055385-89.796923 44.110769-89.796923 102.4v102.4h945.230769v-102.4c0-59.864615-28.356923-80.344615-89.796923-102.4-97.673846-36.233846-162.264615-67.741538-190.621538-89.796924-3.150769-3.150769-4.726154-7.876923-1.575385-11.027692 3.150769-3.150769 7.876923-4.726154 11.027692-1.575384 18.904615 15.753846 66.166154 42.535385 187.47077 88.221538 64.590769 23.630769 99.249231 50.412308 99.24923 118.153846v110.276923c0 4.726154-4.726154 7.876923-7.876923 7.876923z" fill="#116FFF" /><path d="M513.575385 730.978462c-50.412308 0-116.578462-34.658462-171.716923-89.796924-70.892308-70.892308-111.852308-162.264615-111.852308-248.910769 0-4.726154 3.150769-7.876923 7.876923-7.876923s7.876923 3.150769 7.876923 7.876923c0 83.495385 39.384615 170.141538 107.126154 237.883077 51.987692 51.987692 113.427692 85.070769 160.689231 85.070769 39.384615 0 92.947692-23.630769 140.20923-64.590769 80.344615-69.316923 127.606154-165.415385 127.606154-258.363077 0-4.726154 3.150769-7.876923 7.876923-7.876923s7.876923 3.150769 7.876923 7.876923c0 97.673846-50.412308 198.498462-133.907692 270.966154-51.987692 44.110769-105.550769 67.741538-149.661538 67.741539zM789.267692 297.747692c-4.726154 0-7.876923-3.150769-7.876923-7.876923 0-148.086154-119.729231-267.815385-267.815384-267.815384s-267.815385 119.729231-267.815385 267.815384c0 4.726154-3.150769 7.876923-7.876923 7.876923s-7.876923-3.150769-7.876923-7.876923c0-155.963077 127.606154-283.569231 283.569231-283.569231s283.569231 127.606154 283.56923 283.569231c0 4.726154-4.726154 7.876923-7.876923 7.876923z" fill="#116FFF" /><path d="M206.375385 354.461538c-4.726154 0-7.876923-3.150769-7.876923-7.876923 0-11.027692 11.027692-20.48 36.233846-29.932307 51.987692-20.48 163.84-40.96 278.843077-40.96 115.003077 0 226.855385 20.48 278.843077 40.96 25.206154 9.452308 36.233846 18.904615 36.233846 29.932307 0 4.726154-3.150769 7.876923-7.876923 7.876923s-7.876923-3.150769-7.876923-7.876923c0 0-3.150769-6.301538-26.781539-15.753846-50.412308-20.48-160.689231-39.384615-272.541538-39.384615-111.852308 0-222.129231 20.48-272.541539 39.384615-23.630769 9.452308-26.781538 15.753846-26.781538 15.753846 0 3.150769-4.726154 7.876923-7.876923 7.876923z" fill="#116FFF" /><path d="M820.775385 352.886154h-614.4c-4.726154 0-7.876923-3.150769-7.876923-7.876923s3.150769-7.876923 7.876923-7.876923h614.4c4.726154 0 7.876923 3.150769 7.876923 7.876923s-4.726154 7.876923-7.876923 7.876923zM237.883077 400.147692c-4.726154 0-7.876923-3.150769-7.876923-7.876923v-31.507692c0-4.726154 3.150769-7.876923 7.876923-7.876923s7.876923 3.150769 7.876923 7.876923v31.507692c0 4.726154-4.726154 7.876923-7.876923 7.876923zM789.267692 400.147692c-4.726154 0-7.876923-3.150769-7.876923-7.876923v-31.507692c0-4.726154 3.150769-7.876923 7.876923-7.876923s7.876923 3.150769 7.876923 7.876923v31.507692c0 4.726154-4.726154 7.876923-7.876923 7.876923zM505.698462 242.609231c-9.452308 0-20.48-1.575385-29.932308-6.301539-9.452308-4.726154-17.329231-9.452308-23.630769-17.32923-11.027692-12.603077-17.329231-29.932308-17.329231-47.261539 0-39.384615 31.507692-70.892308 70.892308-70.892308 9.452308 0 18.904615 1.575385 26.781538 4.726154 26.781538 11.027692 44.110769 36.233846 44.110769 66.166154 0 20.48-7.876923 39.384615-23.630769 53.563077-14.178462 11.027692-29.932308 17.329231-47.261538 17.329231z m0-126.030769c-29.932308 0-55.138462 25.206154-55.138462 55.138461 0 14.178462 4.726154 26.781538 14.178462 36.233846 4.726154 6.301538 11.027692 9.452308 18.904615 14.178462 18.904615 7.876923 44.110769 4.726154 59.864615-9.452308 11.027692-11.027692 18.904615-25.206154 18.904616-40.96 0-22.055385-12.603077-42.535385-34.658462-50.412308-7.876923-3.150769-15.753846-4.726154-22.055384-4.726153z" fill="#116FFF" /><path d="M521.452308 195.347692c-1.575385 0-4.726154 0-6.301539-1.575384l-31.507692-31.507693c-3.150769-3.150769-3.150769-7.876923 0-11.027692s7.876923-3.150769 11.027692 0l31.507693 31.507692c3.150769 3.150769 3.150769 7.876923 0 11.027693-1.575385 1.575385-3.150769 1.575385-4.726154 1.575384z" fill="#116FFF" /><path d="M458.436923 258.363077c-1.575385 0-4.726154 0-6.301538-1.575385-3.150769-3.150769-3.150769-7.876923 0-11.027692l63.015384-63.015385c3.150769-3.150769 7.876923-3.150769 11.027693 0s3.150769 7.876923 0 11.027693l-63.015385 63.015384c-1.575385 1.575385-3.150769 1.575385-4.726154 1.575385zM489.944615 163.84c-1.575385 0-3.150769 0-4.726153-1.575385-3.150769-3.150769-3.150769-7.876923 0-11.027692l61.44-64.590769c3.150769-3.150769 7.876923-3.150769 11.027692 0 3.150769 3.150769 3.150769 7.876923 0 11.027692l-61.44 64.590769c-3.150769 1.575385-4.726154 1.575385-6.301539 1.575385zM237.883077 330.830769c-4.726154 0-7.876923-3.150769-7.876923-7.876923v-31.507692c0-4.726154 3.150769-7.876923 7.876923-7.876923s7.876923 3.150769 7.876923 7.876923v31.507692c0 4.726154-4.726154 7.876923-7.876923 7.876923zM789.267692 330.830769c-4.726154 0-7.876923-3.150769-7.876923-7.876923v-31.507692c0-4.726154 3.150769-7.876923 7.876923-7.876923s7.876923 3.150769 7.876923 7.876923v31.507692c0 4.726154-4.726154 7.876923-7.876923 7.876923zM694.744615 683.716923c-4.726154 0-7.876923-3.150769-7.876923-7.876923v-15.753846c0-4.726154 3.150769-7.876923 7.876923-7.876923s7.876923 3.150769 7.876923 7.876923v15.753846c0 4.726154-4.726154 7.876923-7.876923 7.876923z" fill="#116FFF" /><path d="M584.467692 793.993846c-1.575385 0-4.726154 0-6.301538-1.575384-3.150769-3.150769-3.150769-7.876923 0-11.027693l110.276923-110.276923c3.150769-3.150769 7.876923-3.150769 11.027692 0 3.150769 3.150769 3.150769 7.876923 0 11.027692l-3.150769 3.15077-107.126154 107.126154c-1.575385 1.575385-3.150769 1.575385-4.726154 1.575384z" fill="#116FFF" /><path d="M584.467692 793.993846c-1.575385 0-3.150769 0-3.150769-1.575384l-63.015385-31.507693c-3.150769-1.575385-4.726154-6.301538-3.150769-11.027692 1.575385-3.150769 6.301538-4.726154 11.027693-3.150769l63.015384 31.507692c3.150769 1.575385 4.726154 6.301538 3.150769 11.027692-3.150769 3.150769-6.301538 4.726154-7.876923 4.726154zM332.406154 683.716923c-4.726154 0-7.876923-3.150769-7.876923-7.876923v-15.753846c0-4.726154 3.150769-7.876923 7.876923-7.876923s7.876923 3.150769 7.876923 7.876923v15.753846c0 4.726154-4.726154 7.876923-7.876923 7.876923z" fill="#116FFF" /><path d="M442.683077 793.993846c-1.575385 0-4.726154 0-6.301539-1.575384l-110.276923-110.276924c-3.150769-3.150769-3.150769-7.876923 0-11.027692 3.150769-3.150769 7.876923-3.150769 11.027693 0l110.276923 110.276923c3.150769 3.150769 3.150769 7.876923 0 11.027693-1.575385 1.575385-3.150769 1.575385-4.726154 1.575384z" fill="#116FFF" /><path d="M442.683077 793.993846c-3.150769 0-6.301538-1.575385-6.301539-4.726154-1.575385-3.150769 0-7.876923 3.15077-11.027692l63.015384-31.507692c3.150769-1.575385 7.876923 0 11.027693 3.150769 1.575385 3.150769 0 7.876923-3.15077 11.027692l-63.015384 31.507693c-3.150769 1.575385-4.726154 1.575385-4.726154 1.575384zM237.883077 998.793846c-4.726154 0-7.876923-3.150769-7.876923-7.876923v-94.523077c0-4.726154 3.150769-7.876923 7.876923-7.876923s7.876923 3.150769 7.876923 7.876923v94.523077c0 4.726154-4.726154 7.876923-7.876923 7.876923zM789.267692 998.793846c-4.726154 0-7.876923-3.150769-7.876923-7.876923v-94.523077c0-4.726154 3.150769-7.876923 7.876923-7.876923s7.876923 3.150769 7.876923 7.876923v94.523077c0 4.726154-4.726154 7.876923-7.876923 7.876923z" fill="#116FFF" /><path d="M237.883077 904.270769c-1.575385 0-4.726154-1.575385-6.301539-3.150769-3.150769-3.150769-1.575385-7.876923 1.575385-11.027692l78.769231-63.015385c3.150769-3.150769 7.876923-1.575385 11.027692 1.575385 3.150769 3.150769 1.575385 7.876923-1.575384 11.027692l-78.769231 63.015385c-1.575385 1.575385-3.150769 1.575385-4.726154 1.575384zM789.267692 904.270769c-1.575385 0-3.150769 0-4.726154-1.575384l-78.76923-63.015385c-3.150769-3.150769-4.726154-7.876923-1.575385-11.027692 3.150769-3.150769 7.876923-3.150769 11.027692-1.575385l78.769231 63.015385c3.150769 3.150769 4.726154 7.876923 1.575385 11.027692-1.575385 3.150769-4.726154 3.150769-6.301539 3.150769z" fill="#116FFF" /><path d="M710.498462 841.255385h-393.846154c-4.726154 0-7.876923-3.150769-7.876923-7.876923s3.150769-7.876923 7.876923-7.876924h393.846154c4.726154 0 7.876923 3.150769 7.876923 7.876924s-4.726154 7.876923-7.876923 7.876923z" fill="#116FFF" /><path d="M474.190769 904.270769H472.615385c-4.726154-1.575385-6.301538-4.726154-6.301539-9.452307l15.753846-63.015385c1.575385-4.726154 4.726154-6.301538 9.452308-6.301539 4.726154 1.575385 6.301538 4.726154 6.301538 9.452308l-15.753846 63.015385c-1.575385 4.726154-4.726154 6.301538-7.876923 6.301538zM552.96 904.270769c-3.150769 0-6.301538-3.150769-7.876923-6.301538l-15.753846-63.015385c-1.575385-4.726154 1.575385-7.876923 6.301538-9.452308 4.726154-1.575385 7.876923 1.575385 9.452308 6.301539l15.753846 63.015385c1.575385 4.726154-1.575385 7.876923-6.301538 9.452307h-1.575385z" fill="#116FFF" /><path d="M474.190769 951.532308c-4.726154 0-7.876923-3.150769-7.876923-7.876923v-47.261539c0-4.726154 3.150769-7.876923 7.876923-7.876923s7.876923 3.150769 7.876923 7.876923v47.261539c0 4.726154-4.726154 7.876923-7.876923 7.876923zM552.96 951.532308c-4.726154 0-7.876923-3.150769-7.876923-7.876923v-47.261539c0-4.726154 3.150769-7.876923 7.876923-7.876923s7.876923 3.150769 7.876923 7.876923v47.261539c0 4.726154-4.726154 7.876923-7.876923 7.876923z" fill="#116FFF" /><path d="M552.96 951.532308h-78.769231c-4.726154 0-7.876923-3.150769-7.876923-7.876923s3.150769-7.876923 7.876923-7.876923h78.769231c4.726154 0 7.876923 3.150769 7.876923 7.876923s-4.726154 7.876923-7.876923 7.876923zM442.683077 904.270769h-204.8c-4.726154 0-7.876923-3.150769-7.876923-7.876923s3.150769-7.876923 7.876923-7.876923h204.8c4.726154 0 7.876923 3.150769 7.876923 7.876923s-4.726154 7.876923-7.876923 7.876923zM789.267692 904.270769h-204.8c-4.726154 0-7.876923-3.150769-7.876923-7.876923s3.150769-7.876923 7.876923-7.876923h204.8c4.726154 0 7.876923 3.150769 7.876923 7.876923s-4.726154 7.876923-7.876923 7.876923zM521.452308 904.270769h-15.753846c-4.726154 0-7.876923-3.150769-7.876924-7.876923s3.150769-7.876923 7.876924-7.876923h15.753846c4.726154 0 7.876923 3.150769 7.876923 7.876923s-4.726154 7.876923-7.876923 7.876923z" fill="#116FFF" /><path d="M489.944615 959.409231c-4.726154 0-7.876923-3.150769-7.876923-7.876923v-7.876923c0-4.726154 3.150769-7.876923 7.876923-7.876923s7.876923 3.150769 7.876923 7.876923v7.876923c0 4.726154-4.726154 7.876923-7.876923 7.876923zM513.575385 959.409231c-4.726154 0-7.876923-3.150769-7.876923-7.876923v-7.876923c0-4.726154 3.150769-7.876923 7.876923-7.876923s7.876923 3.150769 7.876923 7.876923v7.876923c0 4.726154-4.726154 7.876923-7.876923 7.876923zM537.206154 959.409231c-4.726154 0-7.876923-3.150769-7.876923-7.876923v-7.876923c0-4.726154 3.150769-7.876923 7.876923-7.876923s7.876923 3.150769 7.876923 7.876923v7.876923c0 4.726154-4.726154 7.876923-7.876923 7.876923z" fill="#116FFF" /></svg>