<?xml version="1.0" standalone="no"?><!DOCTYPE svg PUBLIC "-//W3C//DTD SVG 1.1//EN" "http://www.w3.org/Graphics/SVG/1.1/DTD/svg11.dtd"><svg class="icon" width="200px" height="200.00px" viewBox="0 0 1024 1024" version="1.1" xmlns="http://www.w3.org/2000/svg"><path d="M174.38100594 641.73647758c0 10.17540949 8.47950848 18.65491797 20.35082012 18.65491797h503.68279439c10.17540949 0 20.35082013-8.47950848 20.35082012-18.65491797V353.43319381c0-10.17540949-8.47950848-20.35082013-20.35082012-20.35082012H193.03592392c-10.17540949 0-20.35082013 8.47950848-20.35082013 20.35082012v22.04672228h-89.88278784v37.30983594h89.88278784v69.53196886H9.87854393v37.30983708h164.50246201v69.53196772H-71.52473543V624.77746062h244.20983922v16.95901696zM240.52117049 673.95860935h-69.53196771v67.8360667h11.87131164v-1.69590215c6.78360633-30.52622962 28.83032861-55.96475506 57.66065607-66.14016455z" fill="#030000" /><path d="M271.04740125 673.95860935c-40.70164025 0-74.61967303 28.83032861-81.4032805 67.8360667 0 5.08770531-1.69590215 8.47950848-1.69590101 13.56721266 0 45.78934443 37.30983709 81.4032805 81.40327936 81.4032805 45.78934443 0 81.4032805-37.30983709 81.4032805-81.4032805 0-5.08770531 0-10.17540949-1.69590216-13.56721266-5.08770531-37.30983709-37.30983709-67.8360667-78.01147619-67.8360667z" fill="#030000" /><path d="M827.30314752 757.05779086m-81.4032805 0a81.4032805 81.4032805 0 1 0 162.80655986 0 81.4032805 81.4032805 0 1 0-162.80655986 0Z" fill="#030000" /><path d="M996.89331371 699.39713365v-61.05245923h1.69590215c1.69590215 0 5.08770531-1.69590215 5.08770418-5.08770532 3.39180317-1.69590215 6.78360633-6.78360633 6.78360746-13.56721379s-3.39180317-11.87131165-6.78360746-13.56721266c0-1.69590215-1.69590215-5.08770531-5.08770418-5.08770532h-1.69590215v-15.2631148c-11.87131165-5.08770531-23.74262329-10.17540949-35.61393493-16.95901696-8.47950848-3.39180317-16.95901696-8.47950848-25.4385243-11.87131165-1.69590215 0-1.69590215-1.69590215-3.39180431-1.69590101-16.95901696-8.47950848-16.95901696-32.22213177-23.74262329-47.48524658-6.78360633-27.13442645-18.65491797-54.26885291-23.74262328-81.4032805-5.08770531-16.95901696-6.78360633-35.61393493-5.08770418-54.2688529L734.02855538 336.47417799v337.48443136H299.87772872c28.83032861 10.17540949 50.87704974 35.61393493 55.96475505 67.8360667v1.69590102h378.18607161c11.87131165-37.30983709 42.39754126-74.61967303 84.79508366-78.0114762 47.48524658-6.78360633 91.57868999 28.83032861 101.75409949 74.61967303h93.27459214v-39.00573809c-5.08770531 0-10.17540949-1.69590215-16.95901696-1.69590216z" fill="#030000" /></svg>